<?xml version="1.0" encoding="utf-8"?>
<!-- Generator: Adobe Illustrator 26.3.1, SVG Export Plug-In . SVG Version: 6.00 Build 0)  -->
<svg version="1.1" id="Layer_1" xmlns="http://www.w3.org/2000/svg" xmlns:xlink="http://www.w3.org/1999/xlink" x="0px" y="0px"
	 viewBox="0 0 10 10" style="enable-background:new 0 0 10 10;" xml:space="preserve">
<style type="text/css">
	.st0{fill:#FFFDFD;}
	.st1{fill:#009EE2;}
</style>
<path class="st0" d="M9.6,5c0,2.5-2.1,4.6-4.6,4.6C2.5,9.6,0.4,7.6,0.4,5S2.5,0.4,5,0.4C7.5,0.4,9.6,2.5,9.6,5z"/>
<path class="st1" d="M5,10c-2.8,0-5-2.2-5-5s2.2-5,5-5c2.8,0,5,2.2,5,5S7.8,10,5,10z M5,0.8C2.7,0.8,0.8,2.7,0.8,5S2.7,9.2,5,9.2
	S9.2,7.3,9.2,5S7.3,0.8,5,0.8z"/>
<path class="st1" d="M7.2,3.2l0,3.2L6.8,6.7l0-3.8L7.2,3.2z"/>
<path class="st1" d="M6.3,7L5.8,7.3l0-4.7L3.3,4l0,3.2L2.8,6.9V3.7l2.7-1.5l0.8,0.4L6.3,7z"/>
<path class="st1" d="M4.3,4L3.7,4.3v3.2l0.5,0.3L4.3,4z"/>
<path class="st1" d="M5.3,3.4L4.7,3.7l0,4l0.5-0.3L5.3,3.4z"/>
</svg>
