<?xml version="1.0" encoding="utf-8"?>
<!-- Generator: Adobe Illustrator 25.2.0, SVG Export Plug-In . SVG Version: 6.00 Build 0)  -->
<svg version="1.1" id="Layer_1" xmlns="http://www.w3.org/2000/svg" xmlns:xlink="http://www.w3.org/1999/xlink" x="0px" y="0px"
	 viewBox="0 0 739 624" style="enable-background:new 0 0 739 624;" xml:space="preserve">
<style type="text/css">
	.st0{fill:#F1F1F1;}
	.st1{fill:none;}
	.st2{fill:#FFFFFF;}
</style>
<rect x="2.5" y="-0.5" class="st0" width="734" height="625"/>
<g>
	<polygon class="st1" points="0,0 0,243.8 436,0 	"/>
	<polygon class="st1" points="436,0 558.1,71.4 559.4,624 639.7,624 638.3,121.9 716.8,170.6 721.4,624 739,624 739,0 	"/>
	<polygon class="st1" points="80.2,292.5 81.3,624 155.2,624 155.2,343 237.2,296 239.1,624 316.7,624 315.7,256 399.4,209 
		401.6,624 478.2,624 474.4,69.7 	"/>
	<polygon class="st2" points="638.3,121.9 639.7,624 721.4,624 716.8,170.6 	"/>
	<polygon class="st2" points="436,0 0,243.8 0,624 81.3,624 80.2,292.5 474.4,69.7 478.2,624 559.4,624 558.1,71.4 	"/>
	<polygon class="st2" points="155.2,343 155.2,624 239.1,624 237.2,296 	"/>
	<polygon class="st2" points="315.7,256 316.7,624 401.6,624 399.4,209 	"/>
</g>
</svg>
