<?xml version="1.0" encoding="utf-8"?>
<!-- Generator: Adobe Illustrator 26.3.1, SVG Export Plug-In . SVG Version: 6.00 Build 0)  -->
<svg version="1.1" id="Layer_1" xmlns="http://www.w3.org/2000/svg" xmlns:xlink="http://www.w3.org/1999/xlink" x="0px" y="0px"
	 viewBox="0 0 20 20.1" style="enable-background:new 0 0 20 20.1;" xml:space="preserve">
<style type="text/css">
	.st0{fill:#111827;}
</style>
<path class="st0" d="M6.7,1.2c-0.1,0-0.1-0.1-0.1-0.2c0-0.1,0-0.1,0-0.2c0-0.1,0-0.1,0.1-0.2c0-0.1,0.1-0.1,0.2-0.1
	c1.4-0.5,2.9-0.7,4.4-0.5c1.5,0.2,2.9,0.7,4.2,1.4c0,0,0.1,0.1,0.1,0.1c0,0,0.1,0.1,0.1,0.1c0,0.1,0,0.1,0,0.2c0,0.1,0,0.1-0.1,0.1
	c-1.1,1.4-2.5,2.6-4,3.6C10.1,3.9,8.5,2.4,6.7,1.2z M10,6.4C8.6,4.4,6.7,2.9,4.6,1.8c-0.1,0-0.1,0-0.2,0c-0.1,0-0.1,0-0.2,0.1
	c-1.7,1.2-3,3-3.7,5c0,0.1,0,0.1,0,0.2c0,0.1,0,0.1,0.1,0.2c0,0,0.1,0.1,0.1,0.1c0,0,0.1,0.1,0.1,0.1c1,0.2,2,0.3,3.1,0.3
	C6,7.7,8.1,7.3,10,6.4z M20,8.9c-0.2-2.2-1.2-4.3-2.8-5.9c0,0-0.1-0.1-0.1-0.1c-0.1,0-0.1,0-0.2,0c-0.1,0-0.1,0-0.2,0
	c0,0-0.1,0.1-0.1,0.1c-1.2,1.6-2.7,2.9-4.4,3.9c0.5,0.9,1,1.9,1.3,2.9c1.4-0.4,2.8-0.6,4.2-0.6c0.6,0,1.2,0,1.8,0.1
	c0.1,0,0.1,0,0.2,0c0.1,0,0.1-0.1,0.1-0.1c0,0,0.1-0.1,0.1-0.1C20,9.1,20,9,20,8.9z M13.9,11.3c0.3,1.2,0.4,2.5,0.4,3.7
	c0,1.2-0.1,2.4-0.4,3.5c0,0.1,0,0.1,0,0.2c0,0.1,0.1,0.1,0.1,0.2c0.1,0,0.1,0.1,0.2,0.1c0.1,0,0.1,0,0.2,0c1.5-0.7,2.7-1.8,3.7-3.1
	c1-1.3,1.6-2.9,1.8-4.5c0-0.1,0-0.1,0-0.2c0,0,0-0.1-0.1-0.1S19.8,11,19.8,11c0,0-0.1,0-0.1,0c-0.6-0.1-1.3-0.1-1.9-0.1
	C16.5,10.8,15.2,11,13.9,11.3z M12,10.3c-0.3-0.9-0.7-1.8-1.2-2.6c-2.2,1-4.6,1.6-7,1.6c-1.1,0-2.3-0.1-3.4-0.4c-0.1,0-0.1,0-0.2,0
	S0.2,8.9,0.2,9c0,0-0.1,0.1-0.1,0.1s0,0.1,0,0.2C0,9.5,0,9.8,0,10c0,1.4,0.3,2.7,0.8,4c0.5,1.3,1.3,2.4,2.4,3.3c0,0,0.1,0.1,0.1,0.1
	c0.1,0,0.1,0,0.2,0c0.1,0,0.1,0,0.2-0.1c0,0,0.1-0.1,0.1-0.1C5.7,14.1,8.6,11.6,12,10.3z M5,18.2c0,0,0,0.1,0,0.1c0,0.1,0,0.1,0,0.2
	c0,0,0,0.1,0.1,0.1c0,0,0.1,0.1,0.1,0.1c1.5,0.8,3.2,1.3,4.9,1.3c0.6,0,1.2,0,1.7-0.2c0.1,0,0.1,0,0.2-0.1c0.1,0,0.1-0.1,0.1-0.2
	c0.5-1.5,0.8-3.1,0.8-4.6c0-1.1-0.1-2.2-0.4-3.2C9.3,13,6.7,15.3,5,18.2z"/>
</svg>
