<svg width="24" height="24" viewBox="0 0 24 24" fill="none" xmlns="http://www.w3.org/2000/svg">
<path d="M12 24C18.6274 24 24 18.6274 24 12C24 5.37258 18.6274 0 12 0C5.37259 0 0 5.37258 0 12C0 18.6274 5.37259 24 12 24Z" fill="#010201"/>
<path d="M12 5.80624C14.0177 5.80624 14.256 5.81335 15.0524 5.85068C15.7884 5.88446 16.1884 6.00712 16.4551 6.11024C16.8071 6.24712 17.0595 6.41068 17.3244 6.67557C17.5893 6.94046 17.7529 7.19112 17.8897 7.5449C17.9929 7.81157 18.1155 8.21157 18.1493 8.94757C18.1848 9.74401 18.1937 9.98401 18.1937 12C18.1937 14.016 18.1866 14.256 18.1493 15.0525C18.1155 15.7885 17.9929 16.1885 17.8897 16.4551C17.7529 16.8071 17.5893 17.0596 17.3244 17.3245C17.0595 17.5893 16.8088 17.7529 16.4551 17.8898C16.1884 17.9929 15.7884 18.1156 15.0524 18.1493C14.256 18.1849 14.0177 18.1938 12 18.1938C9.98218 18.1938 9.74396 18.1867 8.94752 18.1493C8.21151 18.1156 7.81151 17.9929 7.54485 17.8898C7.19285 17.7529 6.9404 17.5893 6.67552 17.3245C6.41063 17.0596 6.24707 16.8089 6.11018 16.4551C6.00707 16.1885 5.8844 15.7885 5.85062 15.0525C5.81507 14.256 5.80618 14.016 5.80618 12C5.80618 9.98401 5.81329 9.74401 5.85062 8.94757C5.8844 8.21157 6.00707 7.81157 6.11018 7.5449C6.24707 7.1929 6.41063 6.94046 6.67552 6.67557C6.9404 6.41068 7.19107 6.24712 7.54485 6.11024C7.81151 6.00712 8.21151 5.88446 8.94752 5.85068C9.74396 5.81512 9.98396 5.80624 12 5.80624ZM12 4.44446C9.94841 4.44446 9.69062 4.45335 8.88529 4.49068C8.08174 4.52801 7.5324 4.65424 7.05062 4.84268C6.55462 5.03646 6.13329 5.29424 5.71196 5.71379C5.2924 6.13335 5.03285 6.55468 4.84085 7.05246C4.65418 7.53246 4.52618 8.08179 4.48885 8.88713C4.45151 9.69246 4.44263 9.95024 4.44263 12.0018C4.44263 14.0533 4.45151 14.3111 4.48885 15.1165C4.52618 15.92 4.6524 16.4693 4.84085 16.9511C5.03463 17.4471 5.2924 17.8685 5.71196 18.2898C6.13151 18.7093 6.55285 18.9689 7.05062 19.1609C7.53062 19.3476 8.07996 19.4756 8.88529 19.5129C9.69062 19.5502 9.94841 19.5591 12 19.5591C14.0515 19.5591 14.3093 19.5502 15.1146 19.5129C15.9182 19.4756 16.4675 19.3493 16.9493 19.1609C17.4453 18.9671 17.8666 18.7093 18.288 18.2898C18.7075 17.8702 18.9671 17.4489 19.1591 16.9511C19.3457 16.4711 19.4737 15.9218 19.5111 15.1165C19.5484 14.3111 19.5573 14.0533 19.5573 12.0018C19.5573 9.95024 19.5484 9.69246 19.5111 8.88713C19.4737 8.08357 19.3475 7.53424 19.1591 7.05246C18.9653 6.55646 18.7075 6.13512 18.288 5.71379C17.8684 5.29424 17.4471 5.03468 16.9493 4.84268C16.4693 4.65601 15.92 4.52801 15.1146 4.49068C14.3093 4.45335 14.0515 4.44446 12 4.44446Z" fill="white"/>
<path d="M12 8.12091C9.85774 8.12091 8.12085 9.8578 8.12085 12C8.12085 14.1422 9.85774 15.8791 12 15.8791C14.1422 15.8791 15.8791 14.1422 15.8791 12C15.8791 9.8578 14.1422 8.12091 12 8.12091ZM12 14.5191C10.6097 14.5191 9.48085 13.392 9.48085 12C9.48085 10.608 10.608 9.48091 12 9.48091C13.392 9.48091 14.5191 10.608 14.5191 12C14.5191 13.392 13.392 14.5191 12 14.5191Z" fill="white"/>
<path d="M16.0336 8.8729C16.5344 8.8729 16.9403 8.46698 16.9403 7.96624C16.9403 7.4655 16.5344 7.05957 16.0336 7.05957C15.5329 7.05957 15.127 7.4655 15.127 7.96624C15.127 8.46698 15.5329 8.8729 16.0336 8.8729Z" fill="white"/>
</svg>
