<svg width="103" height="36" viewBox="0 0 103 36" fill="none" xmlns="http://www.w3.org/2000/svg">
<path d="M40.0776 3.38159H44.1198L53.4346 27.1939H49.861L47.5762 21.0942H36.2696L33.9849 27.1939H30.6456L40.0776 3.38159ZM42.0108 6.25549L37.2656 18.3376H46.5217L42.0108 6.25549Z" fill="black"/>
<path d="M74.2317 4.37865L73.763 7.1939C72.8843 6.72469 71.8884 6.37279 70.8925 6.13818C69.8965 5.90358 68.9006 5.78628 67.8461 5.78628C64.9755 5.78628 62.6908 6.66604 60.9919 8.36692C59.2929 10.1265 58.4142 12.4138 58.4142 15.2291C58.4142 18.0443 59.2929 20.2731 60.9919 21.974C62.6908 23.6748 65.0341 24.496 67.9047 24.496C68.5491 24.496 69.1935 24.4373 69.838 24.32C70.4824 24.2027 71.0682 24.0267 71.654 23.7921V16.6954H66.6744V14.1147H74.8761V26.0209C73.763 26.4314 72.5914 26.7247 71.4197 26.9593C70.1895 27.1939 68.9592 27.2526 67.6118 27.2526C63.6867 27.2526 60.6404 26.1968 58.3556 24.0267C56.0709 21.8567 54.9578 18.9828 54.9578 15.2877C54.9578 11.6514 56.1294 8.71883 58.4142 6.54874C60.6989 4.37865 63.8039 3.26428 67.729 3.26428C68.842 3.26428 69.9551 3.38158 71.0096 3.55754C72.0641 3.73349 73.1186 4.02675 74.2317 4.37865Z" fill="black"/>
<path d="M80.3829 3.38159H83.7222V27.1939H80.3829V3.38159Z" fill="black"/>
<path d="M101.824 3.96808L101.473 6.90063C100.711 6.54873 100.008 6.25547 99.1882 6.07952C98.4266 5.90357 97.6065 5.78627 96.7277 5.78627C95.2631 5.78627 94.15 6.07952 93.3299 6.60738C92.5097 7.13524 92.0996 7.8977 92.0996 8.83612C92.0996 9.59858 92.3925 10.2437 92.9198 10.8303C93.447 11.4168 94.6187 12.2379 96.4348 13.2349C98.7781 14.5253 100.418 15.6983 101.297 16.754C102.176 17.8097 102.645 19.0414 102.645 20.3904C102.645 22.3845 101.883 24.0854 100.418 25.3757C98.9539 26.666 97.0206 27.3112 94.7359 27.3112C93.6228 27.3112 92.5097 27.1939 91.5138 27.0179C90.4593 26.842 89.5219 26.5487 88.6432 26.2555L88.9947 23.0297C89.9906 23.5575 90.9279 23.9094 91.8653 24.144C92.8026 24.3786 93.6814 24.4959 94.5601 24.4959C95.9661 24.4959 97.0792 24.2027 97.8994 23.5575C98.7195 22.9124 99.1882 22.0913 99.1882 21.0942C99.1882 19.5106 97.5479 17.7511 94.2086 15.8742C93.6228 15.581 93.2127 15.2877 92.9198 15.1118C91.6309 14.3493 90.635 13.4696 89.932 12.4138C89.229 11.3581 88.8189 10.2437 88.8189 9.12937C88.8189 7.25254 89.5219 5.78627 90.9279 4.73055C92.3339 3.61618 94.2672 3.08832 96.6691 3.08832C97.5479 3.08832 98.4266 3.14697 99.3054 3.26427C100.184 3.38157 101.063 3.73348 101.824 3.96808Z" fill="black"/>
<path d="M93.6228 35.5223V30.6543H96.9621V31.5341H94.6187V32.5898H96.9035V33.4695H94.6187V35.4637H93.6228V35.5223Z" fill="#009EE2"/>
<path d="M101.766 35.5223V32.0033L100.418 35.5223H100.008L98.661 32.0033V35.5223H97.665V30.6543H99.071L100.184 33.7042L101.297 30.6543H102.703V35.5223H101.766Z" fill="#009EE2"/>
<path d="M24.1428 5.84493L24.3186 23.0883L21.5652 24.6719L21.5066 4.2027L24.1428 5.84493Z" fill="#009EE2"/>
<path d="M18.8703 26.1968L16.1755 27.7217L15.9998 2.44315L2.7599 9.95048L2.81848 27.2525L0.0650635 25.6103V8.30825L14.7109 0.0971069L18.8118 2.5018L18.8703 26.1968Z" fill="#009EE2"/>
<path d="M8.03235 10.0678L5.27893 11.6514V28.8361L8.14952 30.537L8.03235 10.0678Z" fill="#009EE2"/>
<path d="M13.4807 7.13525L10.6687 8.71883L10.7273 30.0678L13.5979 28.5429L13.4807 7.13525Z" fill="#009EE2"/>
</svg>
