<svg width="24" height="24" viewBox="0 0 24 24" fill="none" xmlns="http://www.w3.org/2000/svg">
<path d="M24 12C24 5.37244 18.6276 0 12 0C5.37244 0 0 5.37244 0 12C0 17.9893 4.38756 22.9547 10.1244 23.8542V15.4684H7.07733V12H10.1244V9.35645C10.1244 6.34844 11.9164 4.688 14.6578 4.688C15.9716 4.688 17.344 4.92267 17.344 4.92267V7.87556H15.8311C14.3413 7.87556 13.8756 8.8 13.8756 9.74933V12H17.2036L16.672 15.4684H13.8756V23.8542C19.6124 22.9547 24 17.9893 24 12Z" fill="#010201"/>
<path d="M16.6701 15.4684L17.2017 12H13.8737V9.74932C13.8737 8.79999 14.3377 7.87554 15.8292 7.87554H17.3421V4.92265C17.3421 4.92265 15.9697 4.68799 14.6559 4.68799C11.9146 4.68799 10.1226 6.34843 10.1226 9.35643V12H7.07544V15.4684H10.1226V23.8542C10.7341 23.9502 11.3599 24 11.9981 24C12.6363 24 13.2621 23.9502 13.8737 23.8542V15.4684H16.6701Z" fill="white"/>
</svg>
