<svg viewBox="0 0 1250 1000.0009" xmlns="http://www.w3.org/2000/svg"><path d="M781 62H94q-39 0-66.5 27.5T0 156v688q0 39 27.5 66.5T94 938h687q39 0 66.5-27.5T875 844V156q0-39-27.5-66.5T781 62zM320 695q-53 0-98-26t-71-71q-26-45-26-98t26-98q26-45 71-71t98-26q77 0 131 51l-53 51q-30-30-77-30-33 0-61 16.5t-44 45Q200 467 200 500t16.5 61.5q16.5 28.5 44 45.5t60.5 17q35 0 62-16 21-12 35-34 11-18 13-35H320v-67h185q3 15 3 33 0 55-23.5 98.5t-66 67.5Q376 695 320 695zm430-160h-57v57h-57v-57h-56v-57h56v-56h57v56h57v57z"/></svg>