<svg viewBox="0 0 1250 1000.0009" xmlns="http://www.w3.org/2000/svg"><path d="M438 275q-61 0-112.5 30.5t-82 82Q213 439 213 500t30.5 112.5q30.5 51.5 82 81.5T438 724q61 0 112.5-30t81.5-81.5Q662 561 662 500t-30-112.5q-30-51.5-81.5-82T438 275zm0 371q-40 0-73.5-19.5t-53-53.5Q292 539 292 500t19.5-73q19.5-34 53-53.5T438 354q40 0 73.5 19.5t53 53Q584 460 584 500t-19.5 73.5Q545 607 511 626.5T438 646zm286-380q0 22-15.5 37.5T671 319q-22 0-37-15.5T619 266q0-22 15-37t37-15q22 0 37.5 15t15.5 37zm148 53q-2-57-17-99-17-48-53.5-84T717 83q-42-15-99-18-54-3-180.5-3T257 65q-58 3-99 18-48 17-84 53t-53 84Q5 262 3 319q-3 54-3 180.5T3 680q2 57 17 99 17 48 54 85t85 53q40 15 98 17 54 4 180.5 4t180.5-4q57-2 99-17 48-17 84.5-53.5T855 779q15-42 17-99 3-54 3-180t-3-181zm-93 439q-11 28-32.5 50T696 841q-33 13-107 17-42 2-121 1h-60q-79 1-121-1-75-4-107-17-29-11-50.5-32.5T97 758q-13-33-17-107-2-42-1-121v-60q-1-79 1-121 4-75 17-107 11-29 32.5-50.5T180 159q32-13 106-17 42-2 122-1h60q79-1 121 1 74 4 107 17 29 11 50.5 32.5T779 242q13 32 17 106 2 42 1 122v60q1 79-1 121-4 74-17 107z"/></svg>