<svg viewBox="0 0 1250 1000.0009" xmlns="http://www.w3.org/2000/svg"><path d="M969 500q0 132-66 245-64 109-174 173-113 66-245 66-75 0-143-21 18-29 33-60 20-39 27-67l30-116q12 24 43.5 40t67.5 16q72 0 130-41 57-39 89.5-108T794 475q0-79-40-144-39-63-107.5-99.5T495 195q-101 0-176 42-69 39-107 107-37 66-37 144 0 56 27 110 28 58 71 78 13 6 16-7l14-54q2-8-4-14-15-20-25-50.5T264 490q0-54 26.5-102.5T365 311q51-31 117-31 59 0 105 25t72 70q26 45 26 102 0 64-20 115t-55 79q-35 28-78 28-23 0-41.5-12t-27-32q-8.5-20-2.5-44 5-21 18-65 11-35 15-51 7-27 7-45 0-29-16-48.5T440 382q-37 0-62.5 33.5T352 500q0 19 4 38 2 13 6 24l4 9-25 106q-26 111-31 135-12 48-2 139-90-35-160-102.5T40 692Q0 601 0 500q0-132 66-245 64-109 174-173 113-66 244-66t244 66q110 64 175 173 66 113 66 245z"/></svg>