<svg viewBox="0 0 1250 1000.0009" xmlns="http://www.w3.org/2000/svg"><path d="M394 597q-20 0-34.5-14T345 549q0-20 14.5-34.5T394 500q20 0 34 14.5t14 34q0 19.5-14 34T394 597zm590-97q0 132-66 245-64 109-173 173-113 66-245 66t-245-66Q146 854 82 745 16 632 16 500t66-245q64-109 173-173 113-66 245-66t245 66q109 64 173 173 66 113 66 245zm-258-81q-13 0-25.5 5.5T680 439q-34-23-76-37-45-14-93-15l34-153 109 25q0 20 14 34t34 14q20 0 34-14.5t14-34.5q0-20-14-34.5T702 209q-14 0-26 7.5T658 236l-119-26q-4-1-8 1t-6 7l-37 169q-48 2-91 15.5T321 439q-20-20-47-20-24 0-41 14.5T211 469q-5 21 4 41.5t31 31.5q-3 15-3 30 0 51 34.5 93.5T371 733q59 25 129 25t129.5-25q59.5-25 94.5-67.5t35-93.5q0-18-4-30 22-11 30.5-31.5t3.5-42q-5-21.5-22-35.5t-41-14zM591 646q-17 17-55 24-36 6-73.5-.5T409 646q-4-3-8.5-3t-8 3.5Q389 650 389 655t3 8q22 22 66 30 42 8 84 0 44-8 66-30 4-3 4-8t-4-8.5q-4-3.5-8.5-3.5t-8.5 3zm15-146q-20 0-34 14.5t-14 34q0 19.5 14.5 34t34 14.5q19.5 0 34-14t14.5-34q0-20-14-34.5T606 500z"/></svg>