<svg width="17" height="17" viewBox="0 0 17 17" fill="none" xmlns="http://www.w3.org/2000/svg">
<path d="M15.9743 15.2572C16.0685 15.3619 16.1156 15.477 16.1156 15.6026C16.1156 15.7387 16.0685 15.8538 15.9743 15.948C15.8801 16.0527 15.765 16.105 15.6289 16.105C15.4929 16.105 15.3777 16.0579 15.2835 15.9637L10.5107 11.1595C9.96646 11.641 9.34893 12.0125 8.65813 12.2742C7.96733 12.5359 7.24513 12.6667 6.49153 12.6667C5.38206 12.6667 4.35109 12.3893 3.39863 11.8346C2.47756 11.2903 1.74489 10.5577 1.20063 9.6366C0.645892 8.68413 0.368525 7.65317 0.368525 6.5437C0.368525 5.43423 0.645892 4.40327 1.20063 3.4508C1.74489 2.51927 2.47756 1.78137 3.39863 1.2371C4.35109 0.682366 5.38206 0.405 6.49153 0.405C7.60099 0.405 8.63196 0.682366 9.58443 1.2371C10.516 1.78137 11.2539 2.51927 11.7981 3.4508C12.3529 4.40327 12.6302 5.43423 12.6302 6.5437C12.6302 7.27637 12.5046 7.98287 12.2534 8.6632C12.0127 9.3226 11.6621 9.92443 11.2015 10.4687L15.9743 15.2572ZM6.49153 11.6933C7.43353 11.6933 8.30226 11.4578 9.09773 10.9868C9.88273 10.5367 10.5003 9.92443 10.9503 9.1499C11.4213 8.35443 11.6568 7.4857 11.6568 6.5437C11.6568 5.6017 11.4213 4.73297 10.9503 3.9375C10.5003 3.1525 9.88273 2.53497 9.09773 2.0849C8.30226 1.6139 7.43353 1.3784 6.49153 1.3784C5.55999 1.3784 4.69649 1.6139 3.90103 2.0849C3.11603 2.54543 2.49849 3.16297 2.04843 3.9375C1.57743 4.74343 1.34193 5.61217 1.34193 6.5437C1.34193 7.47523 1.57743 8.33873 2.04843 9.1342C2.49849 9.9192 3.11603 10.5367 3.90103 10.9868C4.69649 11.4578 5.55999 11.6933 6.49153 11.6933Z" fill="white"/>
</svg>
