<svg viewBox="0 0 1250 1000.0009" xmlns="http://www.w3.org/2000/svg"><path d="M830 585q9-49 9-85 0-109-55-203-53-90-144-143-93-55-202-55-44 0-86 9-59-46-133-46-60 0-110 29.5T29.5 171Q0 221 0 281q0 74 46 133-10 47-10 86 0 109 55 203 53 90 144 143 93 55 202 55 44 0 86-9 59 45 133 45 59 0 109.5-29.5t80-79.5Q875 778 875 719q0-37-12-71.5T830 585zM449 764q-63 0-117-17t-86-46.5Q214 671 214 637q0-25 14-42 16-18 44-18 18 0 33 11 10 6 27 24 25 26 42 36 30 17 70 17 37 0 59.5-14.5t22.5-37q0-22.5-19-34.5-12-7-53-17l-42-11q-70-16-100-27-48-19-71-47-27-34-27-88.5t33-92.5q30-33 81-51 46-15 100-15t104 13.5q50 13.5 80 37.5 32 26 32 58 0 26-16 44t-43 18q-17 0-31-8-8-5-23-19-21-19-35-26-25-13-58-13-39 0-60.5 11T356 379q0 17 10.5 26.5T401 422q15 5 59 15l31 7q78 17 119 45 58 40 58 106 0 55-33 95-29 37-81 56-48 18-105 18z"/></svg>