<svg viewBox="0 0 1250 1000.0009" xmlns="http://www.w3.org/2000/svg"><path d="M897 296q1 9 1 27 0 104-38 205-39 106-112 188-78 88-183 137-114 53-250 53-86 0-166-23.5T0 814q26 3 50 3 70 0 135.5-23T304 729q-67-1-119.5-41T112 587q20 3 39 3 30 0 54-7-47-9-84-38t-58.5-71.5Q41 431 41 382v-3q41 24 92 26-42-27-66.5-72.5T42 235q0-56 28-104 77 95 185 151 111 57 237 64-5-25-5-47 0-56 27.5-103t74.5-74.5Q636 94 692 94q44 0 83 17.5t67 47.5q71-14 130-50-11 36-34.5 65T882 222q57-6 118-32-42 62-103 106z"/></svg>