<svg viewBox="0 0 1250 1000.0009" xmlns="http://www.w3.org/2000/svg"><path d="M781 62H94q-39 0-66.5 27.5T0 156v688q0 39 27.5 66.5T94 938h687q39 0 66.5-27.5T875 844V156q0-39-27.5-66.5T781 62zm-95 311v16q0 88-42 170-45 87-123 138-87 57-199 57-108 0-197-58 20 2 31 2 44 0 84.5-14.5T315 643q-42-1-75-25.5T195 554q31 5 58-2-45-9-74-44.5T150 426v-1q27 15 58 16-27-18-42-46.5T151 334q0-37 18-65 48 60 116 94 69 36 148 40-9-42 7-79 15-35 47-56.5t71-21.5q27 0 51.5 10.5T651 286q42-7 81-30-7 22-21.5 40T676 326q38-4 74-20-24 36-64 67z"/></svg>