<svg viewBox="0 0 1250 1000.0009" xmlns="http://www.w3.org/2000/svg"><path d="M1065 230q12-43-35-43H915q-36 0-50 33l-18 40q-24 50-50 93-37 61-74 102-20 20-31.5 28t-21.5 8q-7 0-13-8.5t-6-24.5V230q0-22-7-32.5T619 187H438q-13 0-21 8.5t-8 18.5q0 7 4 14 2 5 10 14 13 16 19 30 10 22 12 54v170q0 27-4.5 35.5T433 540q-19 0-54-43.5T308 385q-38-74-65-153-9-25-20-35t-32-10H76q-40 0-40 33 0 21 15 68 20 62 56 133 46 90 111 181 70 100 165 156 93 54 186 54 35 0 53-5t24-15q5-8 5-24v-49q-1-48 0-62 2-20 8-26t22-6q38 0 115 74 23 23 55 58 29 33 41 42 18 13 39 13h115q25 0 36-12t4-36q-18-57-163-203l-14-15q-12-15-11-27 1-8 11-24 3-3 38-54 42-63 71-113 40-68 47-98z"/></svg>