<svg viewBox="0 0 1250 1000.0009" xmlns="http://www.w3.org/2000/svg"><path d="M744 190q-62-62-141-95T437 62q-118 0-218 59-98 58-156 156Q4 378 4 495t58 218L0 938l230-61q95 53 207 53 118 0 220-59 99-58 158-156 60-102 60-219 0-86-35-166-34-78-96-140zM437 857q-48 0-94.5-13T254 807l-13-8-137 36 37-133-9-14q-55-89-55-192 0-98 49-182 48-81 130-129 84-49 182-49 72 0 137.5 27T692 241q52 53 81 117 29 67 29 138 0 98-50 182-49 82-132 130-85 49-183 49zm198-270q-10-6-37-19-30-14-37-16-9-4-14-3.5t-10 8.5q-13 18-35 43-5 5-10 5.5t-13-3.5q-55-27-82-49-37-29-66-79-4-8-2.5-12.5T337 450q17-17 26-36 5-8-1-19-2-4-24-57l-9-23q-5-12-11-16-4-2-11-3h-23q-16 0-29 14l-1 1q-14 14-22 29-15 26-15 59t19 72q10 20 24 40l2 3q26 37 57 70 61 64 127 92 49 21 78 26 25 5 52 1 18-3 41-17 26-17 32-34.5t8-33.5q1-14-1.5-18.5T637 588l-2-1z"/></svg>