<svg viewBox="0 0 1250 1000.0009" xmlns="http://www.w3.org/2000/svg"><path d="M82 469l194 95q18 9 23.5 27.5t-3.5 35q-9 16.5-28 21.5L58 700q-20 5-36.5-6.5T3 662q-10-83 17-167 7-19 25.5-26.5t36.5.5zm86 468q72 49 155 62 20 4 35.5-9t16.5-33l8-217q0-20-13.5-33T337 694q-19 0-32 15L160 870q-13 15-11 35t19 32zm284-215l115 184q11 17 30.5 20t35.5-10q66-54 103-132 8-18 0-36.5T709 723l-206-67q-19-6-35 3.5T446.5 687q-5.5 18 5.5 35zm289-258q-34-78-98-136-15-13-35-10t-31 19L455 516q-11 17-6 35.5t21 28.5q16 10 35 4l208-59q19-6 27.5-24.5t.5-36.5zM119 59q-17 8-23 27t4 35l203 353q11 19 31.5 21.5T371 486q16-12 16-34V45q0-20-14.5-33T339 0Q220 11 119 59z"/></svg>