<svg viewBox="0 0 1250 1000.0009" xmlns="http://www.w3.org/2000/svg"><path d="M365 395l186 105-186 106V395zm510-239v688q0 39-27.5 66.5T781 938H94q-39 0-66.5-27.5T0 844V156q0-39 27.5-66.5T94 62h687q39 0 66.5 27.5T875 156zm-82 345q0-16-1-32-1-39-3-71-4-45-10.5-69T755 288q-17-17-40.5-23.5T619 254q-52-2-121-3l-60-1-60 1q-70 1-121 3-73 4-96.5 10.5T120 288q-17 17-23.5 41T86 398q-2 32-3 71l-1 32 1 32q1 39 3 71 4 44 10.5 68t23.5 40.5q17 16.5 40.5 23T257 746q51 2 121 3l60 1 60-1q69-1 121-3 72-4 95.5-10.5t40.5-23q17-16.5 23-39.5 7-25 11-69 2-32 3-71l1-32z"/></svg>